<svg width="183" height="119" viewBox="0 0 183 119" fill="none" xmlns="http://www.w3.org/2000/svg">
<circle cx="22.5" cy="22.5" r="22.5" fill="#FF2525"/>
<path d="M15.8135 18.8906V26H14.3535V18.8906H15.8135ZM18.001 18.8906V20.0381H12.2002V18.8906H18.001ZM22.8203 23.6416H24.2803C24.251 24.1201 24.1191 24.5449 23.8848 24.916C23.6536 25.2871 23.3298 25.5768 22.9131 25.7852C22.4997 25.9935 22.0016 26.0977 21.4189 26.0977C20.9632 26.0977 20.5547 26.0195 20.1934 25.8633C19.832 25.7038 19.5228 25.4759 19.2656 25.1797C19.0117 24.8835 18.818 24.5254 18.6846 24.1055C18.5511 23.6855 18.4844 23.2152 18.4844 22.6943V22.2012C18.4844 21.6803 18.5527 21.21 18.6895 20.79C18.8294 20.3669 19.028 20.0072 19.2852 19.7109C19.5456 19.4147 19.8564 19.1868 20.2178 19.0273C20.5791 18.8678 20.9827 18.7881 21.4287 18.7881C22.0212 18.7881 22.5208 18.8955 22.9277 19.1104C23.3379 19.3252 23.6553 19.6214 23.8799 19.999C24.1077 20.3766 24.2445 20.8063 24.29 21.2881H22.8252C22.8089 21.0016 22.752 20.7591 22.6543 20.5605C22.5566 20.3587 22.4085 20.2074 22.21 20.1064C22.0146 20.0023 21.7542 19.9502 21.4287 19.9502C21.1846 19.9502 20.9714 19.9958 20.7891 20.0869C20.6068 20.1781 20.4538 20.3164 20.3301 20.502C20.2064 20.6875 20.1136 20.9219 20.0518 21.2051C19.9932 21.485 19.9639 21.8138 19.9639 22.1914V22.6943C19.9639 23.0622 19.9915 23.3861 20.0469 23.666C20.1022 23.9427 20.1868 24.1771 20.3008 24.3691C20.418 24.5579 20.5677 24.7012 20.75 24.7988C20.9355 24.8932 21.1585 24.9404 21.4189 24.9404C21.7249 24.9404 21.9772 24.8916 22.1758 24.7939C22.3743 24.6963 22.5257 24.5514 22.6299 24.3594C22.7373 24.1673 22.8008 23.9281 22.8203 23.6416ZM28.0107 23.4658H26.1992V22.3232H28.0107C28.2907 22.3232 28.5186 22.2777 28.6943 22.1865C28.8701 22.0921 28.9987 21.9619 29.0801 21.7959C29.1615 21.6299 29.2021 21.4427 29.2021 21.2344C29.2021 21.0228 29.1615 20.8258 29.0801 20.6436C28.9987 20.4613 28.8701 20.3148 28.6943 20.2041C28.5186 20.0934 28.2907 20.0381 28.0107 20.0381H26.707V26H25.2422V18.8906H28.0107C28.5674 18.8906 29.0443 18.9915 29.4414 19.1934C29.8418 19.3919 30.1478 19.667 30.3594 20.0186C30.571 20.3701 30.6768 20.7721 30.6768 21.2246C30.6768 21.6836 30.571 22.0807 30.3594 22.416C30.1478 22.7513 29.8418 23.0101 29.4414 23.1924C29.0443 23.3747 28.5674 23.4658 28.0107 23.4658Z" fill="white"/>
<circle cx="138.5" cy="90.5" r="22.5" fill="#FF2525"/>
<path d="M128.192 86.8906V94H126.732V86.8906H128.192ZM133.686 91.6416H135.146C135.116 92.1201 134.984 92.5449 134.75 92.916C134.519 93.2871 134.195 93.5768 133.778 93.7852C133.365 93.9935 132.867 94.0977 132.284 94.0977C131.828 94.0977 131.42 94.0195 131.059 93.8633C130.697 93.7038 130.388 93.4759 130.131 93.1797C129.877 92.8835 129.683 92.5254 129.55 92.1055C129.416 91.6855 129.35 91.2152 129.35 90.6943V90.2012C129.35 89.6803 129.418 89.21 129.555 88.79C129.695 88.3669 129.893 88.0072 130.15 87.7109C130.411 87.4147 130.722 87.1868 131.083 87.0273C131.444 86.8678 131.848 86.7881 132.294 86.7881C132.886 86.7881 133.386 86.8955 133.793 87.1104C134.203 87.3252 134.521 87.6214 134.745 87.999C134.973 88.3766 135.11 88.8063 135.155 89.2881H133.69C133.674 89.0016 133.617 88.7591 133.52 88.5605C133.422 88.3587 133.274 88.2074 133.075 88.1064C132.88 88.0023 132.619 87.9502 132.294 87.9502C132.05 87.9502 131.837 87.9958 131.654 88.0869C131.472 88.1781 131.319 88.3164 131.195 88.502C131.072 88.6875 130.979 88.9219 130.917 89.2051C130.858 89.485 130.829 89.8138 130.829 90.1914V90.6943C130.829 91.0622 130.857 91.3861 130.912 91.666C130.967 91.9427 131.052 92.1771 131.166 92.3691C131.283 92.5579 131.433 92.7012 131.615 92.7988C131.801 92.8932 132.024 92.9404 132.284 92.9404C132.59 92.9404 132.842 92.8916 133.041 92.7939C133.24 92.6963 133.391 92.5514 133.495 92.3594C133.603 92.1673 133.666 91.9281 133.686 91.6416ZM136.776 86.8906H138.017L139.843 92.1104L141.669 86.8906H142.909L140.341 94H139.345L136.776 86.8906ZM136.107 86.8906H137.343L137.567 91.9785V94H136.107V86.8906ZM142.343 86.8906H143.583V94H142.118V91.9785L142.343 86.8906ZM147.636 91.4658H145.824V90.3232H147.636C147.916 90.3232 148.144 90.2777 148.319 90.1865C148.495 90.0921 148.624 89.9619 148.705 89.7959C148.786 89.6299 148.827 89.4427 148.827 89.2344C148.827 89.0228 148.786 88.8258 148.705 88.6436C148.624 88.4613 148.495 88.3148 148.319 88.2041C148.144 88.0934 147.916 88.0381 147.636 88.0381H146.332V94H144.867V86.8906H147.636C148.192 86.8906 148.669 86.9915 149.066 87.1934C149.467 87.3919 149.773 87.667 149.984 88.0186C150.196 88.3701 150.302 88.7721 150.302 89.2246C150.302 89.6836 150.196 90.0807 149.984 90.416C149.773 90.7513 149.467 91.0101 149.066 91.1924C148.669 91.3747 148.192 91.4658 147.636 91.4658Z" fill="white"/>
<circle cx="36.5" cy="96.5" r="22.5" fill="#FF2525"/>
<path d="M30.5605 92.8906H32.0205V97.5879C32.0205 98.1348 31.9033 98.5954 31.6689 98.9697C31.4378 99.3441 31.1172 99.6257 30.707 99.8145C30.3001 100.003 29.8314 100.098 29.3008 100.098C28.7702 100.098 28.2982 100.003 27.8848 99.8145C27.4746 99.6257 27.1523 99.3441 26.918 98.9697C26.6868 98.5954 26.5713 98.1348 26.5713 97.5879V92.8906H28.0361V97.5879C28.0361 97.9069 28.0866 98.1673 28.1875 98.3691C28.2884 98.571 28.4333 98.7191 28.6221 98.8135C28.8141 98.9079 29.0404 98.9551 29.3008 98.9551C29.5677 98.9551 29.7939 98.9079 29.9795 98.8135C30.1683 98.7191 30.3115 98.571 30.4092 98.3691C30.5101 98.1673 30.5605 97.9069 30.5605 97.5879V92.8906ZM35.4092 100H33.8613L33.8711 98.8574H35.4092C35.7933 98.8574 36.1172 98.7712 36.3809 98.5986C36.6445 98.4229 36.8431 98.1673 36.9766 97.832C37.1133 97.4967 37.1816 97.0915 37.1816 96.6162V96.2695C37.1816 95.9049 37.1426 95.5843 37.0645 95.3076C36.9896 95.0309 36.8773 94.7982 36.7275 94.6094C36.5778 94.4206 36.3939 94.279 36.1758 94.1846C35.9577 94.0869 35.707 94.0381 35.4238 94.0381H33.832V92.8906H35.4238C35.8991 92.8906 36.3337 92.972 36.7275 93.1348C37.1247 93.2943 37.4681 93.5238 37.7578 93.8232C38.0475 94.1227 38.2705 94.4808 38.4268 94.8975C38.5863 95.3109 38.666 95.7715 38.666 96.2793V96.6162C38.666 97.1208 38.5863 97.5814 38.4268 97.998C38.2705 98.4147 38.0475 98.7728 37.7578 99.0723C37.4714 99.3685 37.1279 99.598 36.7275 99.7607C36.3304 99.9202 35.891 100 35.4092 100ZM34.6914 92.8906V100H33.2266V92.8906H34.6914ZM42.499 97.4658H40.6875V96.3232H42.499C42.779 96.3232 43.0068 96.2777 43.1826 96.1865C43.3584 96.0921 43.487 95.9619 43.5684 95.7959C43.6497 95.6299 43.6904 95.4427 43.6904 95.2344C43.6904 95.0228 43.6497 94.8258 43.5684 94.6436C43.487 94.4613 43.3584 94.3148 43.1826 94.2041C43.0068 94.0934 42.779 94.0381 42.499 94.0381H41.1953V100H39.7305V92.8906H42.499C43.0557 92.8906 43.5326 92.9915 43.9297 93.1934C44.3301 93.3919 44.6361 93.667 44.8477 94.0186C45.0592 94.3701 45.165 94.7721 45.165 95.2246C45.165 95.6836 45.0592 96.0807 44.8477 96.416C44.6361 96.7513 44.3301 97.0101 43.9297 97.1924C43.5326 97.3747 43.0557 97.4658 42.499 97.4658Z" fill="white"/>
<circle cx="93.5" cy="58.5" r="22.5" fill="#FF2525"/>
<path d="M90.1924 54.8906V62H88.7324V54.8906H90.1924ZM94.333 59.4658H92.5215V58.3232H94.333C94.613 58.3232 94.8408 58.2777 95.0166 58.1865C95.1924 58.0921 95.321 57.9619 95.4023 57.7959C95.4837 57.6299 95.5244 57.4427 95.5244 57.2344C95.5244 57.0228 95.4837 56.8258 95.4023 56.6436C95.321 56.4613 95.1924 56.3148 95.0166 56.2041C94.8408 56.0934 94.613 56.0381 94.333 56.0381H93.0293V62H91.5645V54.8906H94.333C94.8896 54.8906 95.3665 54.9915 95.7637 55.1934C96.1641 55.3919 96.4701 55.667 96.6816 56.0186C96.8932 56.3701 96.999 56.7721 96.999 57.2246C96.999 57.6836 96.8932 58.0807 96.6816 58.416C96.4701 58.7513 96.1641 59.0101 95.7637 59.1924C95.3665 59.3747 94.8896 59.4658 94.333 59.4658Z" fill="white"/>
<line x1="36.2052" y1="31.544" x2="76.2052" y2="49.544" stroke="#FF2525"/>
<line x1="145.224" y1="36.4472" x2="111.224" y2="53.4472" stroke="#FF2525"/>
<line x1="50.7826" y1="84.5497" x2="79.7826" y2="70.5497" stroke="#FF2525"/>
<circle cx="160.5" cy="25.5" r="22.5" fill="#FF2525"/>
<line x1="105.243" y1="67.5629" x2="123.243" y2="77.5629" stroke="#FF2525"/>
<line x1="26.4936" y1="40.92" x2="32.4936" y2="77.92" stroke="#FF2525"/>
<line x1="42.0104" y1="22.5001" x2="138.01" y2="24.5001" stroke="#FF2525"/>
<line x1="151.479" y1="41.1437" x2="142.479" y2="71.1437" stroke="#FF2525"/>
<line x1="50.978" y1="99.5005" x2="118.978" y2="96.5005" stroke="#FF2525"/>
<path d="M155.813 21.8906V29H154.354V21.8906H155.813ZM158.001 21.8906V23.0381H152.2V21.8906H158.001ZM163.406 27.8574V29H159.827V27.8574H163.406ZM160.301 21.8906V29H158.836V21.8906H160.301ZM167.947 27.1396C167.947 27.0127 167.928 26.8988 167.889 26.7979C167.853 26.6937 167.785 26.5993 167.684 26.5146C167.583 26.4268 167.441 26.3405 167.259 26.2559C167.076 26.1712 166.84 26.0833 166.551 25.9922C166.229 25.888 165.923 25.7708 165.633 25.6406C165.346 25.5104 165.092 25.359 164.871 25.1865C164.653 25.0107 164.48 24.8073 164.354 24.5762C164.23 24.3451 164.168 24.0765 164.168 23.7705C164.168 23.4743 164.233 23.2057 164.363 22.9648C164.493 22.7207 164.676 22.5124 164.91 22.3398C165.145 22.1641 165.421 22.029 165.74 21.9346C166.062 21.8402 166.416 21.793 166.8 21.793C167.324 21.793 167.781 21.8874 168.172 22.0762C168.562 22.265 168.865 22.5238 169.08 22.8525C169.298 23.1813 169.407 23.5573 169.407 23.9805H167.952C167.952 23.7721 167.908 23.5898 167.82 23.4336C167.736 23.2741 167.605 23.1488 167.43 23.0576C167.257 22.9665 167.039 22.9209 166.775 22.9209C166.521 22.9209 166.31 22.96 166.141 23.0381C165.971 23.113 165.844 23.2155 165.76 23.3457C165.675 23.4727 165.633 23.6159 165.633 23.7754C165.633 23.8958 165.662 24.0049 165.721 24.1025C165.783 24.2002 165.874 24.2913 165.994 24.376C166.115 24.4606 166.263 24.5404 166.438 24.6152C166.614 24.6901 166.818 24.7633 167.049 24.835C167.436 24.9521 167.776 25.084 168.069 25.2305C168.366 25.377 168.613 25.5413 168.812 25.7236C169.01 25.9059 169.16 26.1126 169.261 26.3438C169.362 26.5749 169.412 26.8369 169.412 27.1299C169.412 27.4391 169.352 27.7158 169.231 27.96C169.111 28.2041 168.937 28.4108 168.709 28.5801C168.481 28.7493 168.209 28.8779 167.894 28.9658C167.578 29.0537 167.225 29.0977 166.834 29.0977C166.482 29.0977 166.136 29.0521 165.794 28.9609C165.452 28.8665 165.141 28.7249 164.861 28.5361C164.585 28.3473 164.363 28.1064 164.197 27.8135C164.031 27.5205 163.948 27.1738 163.948 26.7734H165.418C165.418 26.9948 165.452 27.182 165.521 27.335C165.589 27.488 165.685 27.6117 165.809 27.7061C165.936 27.8005 166.085 27.8688 166.258 27.9111C166.434 27.9535 166.626 27.9746 166.834 27.9746C167.088 27.9746 167.296 27.9388 167.459 27.8672C167.625 27.7956 167.747 27.6963 167.825 27.5693C167.907 27.4424 167.947 27.2992 167.947 27.1396Z" fill="white"/>
</svg>
